<svg width="373" height="31" viewBox="0 0 373 31" fill="none" xmlns="http://www.w3.org/2000/svg">
<path d="M1.33203 20.6836L2.96094 18.9609C3.35938 19.1094 3.91406 19.2422 4.625 19.3594C5.20312 19.0078 5.59766 18.5625 5.80859 18.0234C6.01953 17.4766 6.21484 16.4062 6.39453 14.8125L7.36719 6.08203C3.82812 6.49609 2.05859 7.77344 2.05859 9.91406C2.05859 10.5547 2.23047 11.2227 2.57422 11.918L0.675781 13.6992C0.503906 13.3164 0.417969 12.75 0.417969 12C0.417969 9.65625 1.32812 7.86719 3.14844 6.63281C4.97656 5.39062 7.60938 4.76953 11.0469 4.76953C16.7188 4.76953 19.5547 6.74219 19.5547 10.6875C19.5547 13.0469 18.7578 15.2227 17.1641 17.2148C15.0469 19.8477 11.8203 21.1641 7.48438 21.1641C5.66406 21.1641 3.61328 21.0039 1.33203 20.6836ZM9.28906 5.8125L8.30469 14.6133L8.1875 15.7148C8.07031 16.7383 7.85156 17.4844 7.53125 17.9531C7.21094 18.4219 6.58203 18.9297 5.64453 19.4766C7.35547 19.7109 8.95312 19.8281 10.4375 19.8281C11.8203 19.8281 12.8867 19.6367 13.6367 19.2539C14.3945 18.8633 15.1328 18.1289 15.8516 17.0508C16.8594 15.5508 17.3633 13.8672 17.3633 12C17.3633 7.875 14.8008 5.8125 9.67578 5.8125H9.28906ZM27.7812 16.3477C26.8984 17.8008 25.9258 18.9922 24.8633 19.9219C23.8086 20.8438 22.8906 21.3047 22.1094 21.3047C21.0391 21.3047 20.5039 20.4414 20.5039 18.7148C20.5039 16.3398 21.2812 14.2852 22.8359 12.5508C24.3984 10.8086 26.2461 9.9375 28.3789 9.9375C29.1914 9.9375 29.8828 10.0391 30.4531 10.2422C30.4141 10.3828 30.3906 10.4688 30.3828 10.5L30.2422 11.1211C30.1484 11.5508 30.0977 11.8008 30.0898 11.8711L29.3398 17.0508L29.2344 17.8008C29.1328 18.543 29.082 19.0391 29.082 19.2891C29.082 19.625 29.1797 19.793 29.375 19.793C30.0312 19.793 30.7031 19.0586 31.3906 17.5898C31.6016 17.7148 31.707 17.8398 31.707 17.9648C31.707 18.2383 31.3711 18.7891 30.6992 19.6172C29.7852 20.7422 28.9375 21.3047 28.1562 21.3047C27.5859 21.3047 27.3008 20.9219 27.3008 20.1562C27.3008 19.9219 27.3281 19.5977 27.3828 19.1836L27.5 18.2461L27.6523 17.2148L27.7812 16.3477ZM28.4492 11.6953C27.7383 11.2969 27.0195 11.0977 26.293 11.0977C25.1992 11.0977 24.2812 11.7656 23.5391 13.1016C22.7969 14.4375 22.4258 16.0938 22.4258 18.0703C22.4258 19.0859 22.7266 19.5938 23.3281 19.5938C24.0234 19.5938 24.8633 19.0625 25.8477 18C27.1758 16.5703 27.9805 14.8906 28.2617 12.9609L28.4492 11.6953ZM35.9844 20.5898L34.2383 21.3047L34.2734 20.9766L34.3672 20.1094L34.4609 19.2891L35.0703 13.8516L35.1406 13.2305C35.1875 12.7461 35.2109 12.3555 35.2109 12.0586C35.2109 11.5586 35.0859 11.3086 34.8359 11.3086C34.25 11.3086 33.6211 11.9727 32.9492 13.3008C32.7695 13.1523 32.6797 13.0234 32.6797 12.9141C32.6797 12.4453 33.1055 11.8086 33.957 11.0039C34.8164 10.1914 35.4922 9.78516 35.9844 9.78516C36.6562 9.78516 36.9922 10.2148 36.9922 11.0742C36.9922 11.293 36.9727 11.5859 36.9336 11.9531L36.8398 12.9023L36.7461 13.6992L36.6523 14.5312C37.5742 13.1562 38.582 12.0234 39.6758 11.1328C40.7773 10.2344 41.7148 9.78516 42.4883 9.78516C43.2461 9.78516 43.625 10.3125 43.625 11.3672C43.625 11.6875 43.582 12.168 43.4961 12.8086L42.8633 17.1797C42.7383 18.0547 42.6758 18.7461 42.6758 19.2539C42.6758 19.6602 42.7852 19.8633 43.0039 19.8633C43.543 19.8633 44.207 19.1445 44.9961 17.707C45.1836 17.8242 45.2773 17.9453 45.2773 18.0703C45.2773 18.5781 44.8398 19.2461 43.9648 20.0742C43.0977 20.8945 42.3906 21.3047 41.8438 21.3047C41.2344 21.3047 40.9297 20.8672 40.9297 19.9922C40.9297 19.3516 41.0117 18.4648 41.1758 17.332L41.5859 14.4961C41.7188 13.5742 41.7852 12.8438 41.7852 12.3047C41.7852 11.6875 41.5703 11.3789 41.1406 11.3789C40.1406 11.3789 39.125 12.0586 38.0938 13.418C37.0703 14.7695 36.4727 16.2227 36.3008 17.7773L35.9844 20.5898ZM52.0508 17.5898C52.2617 17.7148 52.3672 17.8359 52.3672 17.9531C52.3672 18.2344 52.0273 18.7891 51.3477 19.6172C50.4336 20.7422 49.5859 21.3047 48.8047 21.3047C48.2344 21.3047 47.9492 20.9258 47.9492 20.168C47.9492 19.8477 48.0664 18.8633 48.3008 17.2148L48.7578 14.0273L48.875 13.2188L48.9688 12.5742C49.0078 12.3008 49.0273 12.0703 49.0273 11.8828C49.0273 11.4922 48.918 11.2969 48.6992 11.2969C48.0898 11.2969 47.4336 11.9688 46.7305 13.3125C46.582 13.1797 46.5078 13.0469 46.5078 12.9141C46.5078 12.4375 46.9453 11.7969 47.8203 10.9922C48.7031 10.1875 49.4062 9.78516 49.9297 9.78516C50.5156 9.78516 50.8086 10.1914 50.8086 11.0039C50.8086 11.1602 50.7773 11.4805 50.7148 11.9648L50.6094 12.75C50.6016 12.8125 50.5586 13.1289 50.4805 13.6992L50 17.0508L49.8828 17.8008C49.7812 18.543 49.7305 19.0391 49.7305 19.2891C49.7305 19.625 49.8281 19.793 50.0234 19.793C50.6797 19.793 51.3555 19.0586 52.0508 17.5898ZM49.6953 8.27344L50.6797 5.84766C51.5547 5.48828 52.2734 4.99219 52.8359 4.35938C52.9141 4.46875 52.9531 4.58203 52.9531 4.69922C52.9531 5.74609 51.8672 6.9375 49.6953 8.27344ZM60.5938 17.2734C60.7891 17.4062 60.8867 17.5625 60.8867 17.7422C60.8867 17.9844 60.6367 18.3984 60.1367 18.9844C58.8008 20.5312 57.4805 21.3047 56.1758 21.3047C55.3789 21.3047 54.7227 20.9883 54.207 20.3555C53.6914 19.7227 53.4336 18.9141 53.4336 17.9297C53.4336 16.1484 54.1055 14.3477 55.4492 12.5273C56.8008 10.6992 58.1367 9.78516 59.457 9.78516C60.4102 9.78516 60.8867 10.2969 60.8867 11.3203C60.8867 12.4688 60.3281 13.5898 59.2109 14.6836C58.1016 15.7773 56.7461 16.5391 55.1445 16.9688C55.3008 18.8516 56.043 19.793 57.3711 19.793C58.6836 19.793 59.7578 18.9531 60.5938 17.2734ZM55.1914 15.5391C55.418 15.6172 55.625 15.6562 55.8125 15.6562C56.7812 15.6562 57.6289 15.3594 58.3555 14.7656C59.082 14.1719 59.4453 13.4766 59.4453 12.6797C59.4453 11.7656 58.9805 11.3086 58.0508 11.3086C57.3789 11.3086 56.7695 11.7109 56.2227 12.5156C55.6836 13.3125 55.3398 14.3203 55.1914 15.5391ZM67.1562 17.5547C67.3828 17.6641 67.4961 17.8047 67.4961 17.9766C67.4961 18.5391 67.0742 19.2344 66.2305 20.0625C65.3945 20.8906 64.6914 21.3047 64.1211 21.3047C63.4727 21.3047 63.1484 20.8359 63.1484 19.8984C63.1484 19.3281 63.1836 18.7461 63.2539 18.1523L63.3828 17.1094L64.2852 8.95312C64.5664 6.46875 65.418 4.39453 66.8398 2.73047C68.2695 1.06641 69.9141 0.234375 71.7734 0.234375C72.2266 0.234375 72.6094 0.273437 72.9219 0.351562L71.2578 2.05078C70.8906 1.92578 70.4609 1.86328 69.9688 1.86328C68.7969 1.86328 67.918 2.27734 67.332 3.10547C66.7539 3.92578 66.3555 5.32031 66.1367 7.28906L65.0469 17.1094C64.9609 17.8672 64.918 18.4102 64.918 18.7383C64.918 19.4414 65.0391 19.793 65.2812 19.793C65.5703 19.793 65.9102 19.5625 66.3008 19.1016C66.6914 18.6328 66.9766 18.1172 67.1562 17.5547ZM86.4805 19.6406C84.7148 20.8672 82.9766 21.4805 81.2656 21.4805C79.6484 21.4805 78.3438 20.8828 77.3516 19.6875C76.3672 18.4922 75.875 16.9141 75.875 14.9531C75.875 12.0547 76.7891 9.63281 78.6172 7.6875C80.4453 5.74219 82.7266 4.76953 85.4609 4.76953C86.8438 4.76953 88.2773 5.03125 89.7617 5.55469L88.9766 7.27734L88.7539 7.78125C88.5664 8.17969 88.3359 8.37891 88.0625 8.37891C88.0078 8.37891 87.9258 8.36719 87.8164 8.34375C87.9258 8.10156 87.9805 7.90234 87.9805 7.74609C87.9805 7.22266 87.6289 6.76562 86.9258 6.375C86.2305 5.98438 85.418 5.78906 84.4883 5.78906C82.543 5.78906 80.9844 6.55469 79.8125 8.08594C78.6406 9.60938 78.0547 11.6328 78.0547 14.1562C78.0547 16.0078 78.4648 17.4531 79.2852 18.4922C80.1055 19.5312 81.2461 20.0508 82.707 20.0508C84.0508 20.0508 85.3516 19.5195 86.6094 18.457L87.0898 14.2266H85.0977C83.7461 14.2266 82.6641 14.3594 81.8516 14.625C82.2422 13.8281 82.6094 13.3281 82.9531 13.125C83.3047 12.9219 83.9609 12.8203 84.9219 12.8203L86.1055 12.8086H89.2227L89.1055 13.2891L88.918 14.0273C88.8164 14.4648 88.7461 14.8438 88.707 15.1641L88.1914 19.875C88.0117 21.4609 87.7812 22.6445 87.5 23.4258C87.2188 24.2148 86.7578 24.9414 86.1172 25.6055C84.8359 26.9492 83.3047 27.6211 81.5234 27.6211C79.8828 27.6211 78.6055 27.0586 77.6914 25.9336L79.4375 24.5508C80.1562 25.9336 81.2617 26.625 82.7539 26.625C83.8789 26.625 84.6875 26.2695 85.1797 25.5586C85.6797 24.8555 86.0391 23.5586 86.2578 21.668L86.4805 19.6406ZM93.9688 21.3047C92.2109 21.3047 91.332 20.1406 91.332 17.8125C91.332 15.9375 92.0195 14.1328 93.3945 12.3984C94.7695 10.6562 96.1953 9.78516 97.6719 9.78516C99.4531 9.78516 100.344 10.9492 100.344 13.2773C100.344 15.1602 99.6562 16.9688 98.2812 18.7031C96.9062 20.4375 95.4688 21.3047 93.9688 21.3047ZM95.3867 19.9922C96.2852 19.9922 97.0352 19.4922 97.6367 18.4922C98.2461 17.4922 98.5508 16.2461 98.5508 14.7539C98.5508 12.3164 97.793 11.0977 96.2773 11.0977C95.3867 11.0977 94.6367 11.6016 94.0273 12.6094C93.4258 13.6094 93.125 14.8516 93.125 16.3359C93.125 18.7734 93.8789 19.9922 95.3867 19.9922ZM106.414 17.5547C106.641 17.6641 106.754 17.8047 106.754 17.9766C106.754 18.5391 106.332 19.2344 105.488 20.0625C104.652 20.8906 103.949 21.3047 103.379 21.3047C102.73 21.3047 102.406 20.8359 102.406 19.8984C102.406 19.3281 102.441 18.7461 102.512 18.1523L102.641 17.1094L103.543 8.95312C103.824 6.46875 104.676 4.39453 106.098 2.73047C107.527 1.06641 109.172 0.234375 111.031 0.234375C111.484 0.234375 111.867 0.273437 112.18 0.351562L110.516 2.05078C110.148 1.92578 109.719 1.86328 109.227 1.86328C108.055 1.86328 107.176 2.27734 106.59 3.10547C106.012 3.92578 105.613 5.32031 105.395 7.28906L104.305 17.1094C104.219 17.8672 104.176 18.4102 104.176 18.7383C104.176 19.4414 104.297 19.793 104.539 19.793C104.828 19.793 105.168 19.5625 105.559 19.1016C105.949 18.6328 106.234 18.1172 106.414 17.5547ZM115.895 9.96094L116.012 8.95312C116.293 6.45312 117.145 4.375 118.566 2.71875C119.996 1.0625 121.641 0.234375 123.5 0.234375C123.945 0.234375 124.328 0.273437 124.648 0.351562L122.984 2.05078C122.617 1.92578 122.184 1.86328 121.684 1.86328C120.512 1.86328 119.637 2.27344 119.059 3.09375C118.48 3.91406 118.082 5.3125 117.863 7.28906L116.773 17.0508L116.691 17.8008C116.621 18.4648 116.586 18.9375 116.586 19.2188C116.586 19.6016 116.688 19.793 116.891 19.793C117.539 19.793 118.191 19.0586 118.848 17.5898C119.059 17.7148 119.164 17.8398 119.164 17.9648C119.164 18.2461 118.848 18.7969 118.215 19.6172C117.332 20.7422 116.504 21.3047 115.73 21.3047C115.129 21.3047 114.828 20.8906 114.828 20.0625C114.828 19.7578 114.875 19.1523 114.969 18.2461L115.086 17.2148L115.18 16.3477C114.648 17.5195 113.785 18.6406 112.59 19.7109C111.402 20.7734 110.422 21.3047 109.648 21.3047C108.547 21.3047 107.996 20.4414 107.996 18.7148C107.996 16.457 108.758 14.4297 110.281 12.6328C111.805 10.8359 113.523 9.9375 115.438 9.9375C115.531 9.9375 115.684 9.94531 115.895 9.96094ZM115.707 11.6367C115.051 11.2773 114.449 11.0977 113.902 11.0977C112.746 11.0977 111.793 11.7539 111.043 13.0664C110.293 14.3789 109.918 16.0469 109.918 18.0703C109.918 19.0859 110.215 19.5938 110.809 19.5938C111.527 19.5938 112.371 19.0625 113.34 18C114.598 16.6328 115.34 14.9531 115.566 12.9609L115.707 11.6367ZM127.508 17.2734C127.703 17.4062 127.801 17.5625 127.801 17.7422C127.801 17.9844 127.551 18.3984 127.051 18.9844C125.715 20.5312 124.395 21.3047 123.09 21.3047C122.293 21.3047 121.637 20.9883 121.121 20.3555C120.605 19.7227 120.348 18.9141 120.348 17.9297C120.348 16.1484 121.02 14.3477 122.363 12.5273C123.715 10.6992 125.051 9.78516 126.371 9.78516C127.324 9.78516 127.801 10.2969 127.801 11.3203C127.801 12.4688 127.242 13.5898 126.125 14.6836C125.016 15.7773 123.66 16.5391 122.059 16.9688C122.215 18.8516 122.957 19.793 124.285 19.793C125.598 19.793 126.672 18.9531 127.508 17.2734ZM122.105 15.5391C122.332 15.6172 122.539 15.6562 122.727 15.6562C123.695 15.6562 124.543 15.3594 125.27 14.7656C125.996 14.1719 126.359 13.4766 126.359 12.6797C126.359 11.7656 125.895 11.3086 124.965 11.3086C124.293 11.3086 123.684 11.7109 123.137 12.5156C122.598 13.3125 122.254 14.3203 122.105 15.5391ZM134.07 17.5547C134.297 17.6641 134.41 17.8047 134.41 17.9766C134.41 18.5391 133.988 19.2344 133.145 20.0625C132.309 20.8906 131.605 21.3047 131.035 21.3047C130.387 21.3047 130.062 20.8359 130.062 19.8984C130.062 19.3281 130.098 18.7461 130.168 18.1523L130.297 17.1094L131.199 8.95312C131.48 6.46875 132.332 4.39453 133.754 2.73047C135.184 1.06641 136.828 0.234375 138.688 0.234375C139.141 0.234375 139.523 0.273437 139.836 0.351562L138.172 2.05078C137.805 1.92578 137.375 1.86328 136.883 1.86328C135.711 1.86328 134.832 2.27734 134.246 3.10547C133.668 3.92578 133.27 5.32031 133.051 7.28906L131.961 17.1094C131.875 17.8672 131.832 18.4102 131.832 18.7383C131.832 19.4414 131.953 19.793 132.195 19.793C132.484 19.793 132.824 19.5625 133.215 19.1016C133.605 18.6328 133.891 18.1172 134.07 17.5547ZM144.863 20.5898L143.129 21.3047L143.164 20.9766L143.258 20.1094L143.34 19.2891L143.926 14.0273L144.008 13.4297C144.039 13.1172 144.055 12.8125 144.055 12.5156C144.055 11.7578 143.824 11.3789 143.363 11.3789C142.645 11.3789 141.805 12.1133 140.844 13.582C139.891 15.0508 139.34 16.4492 139.191 17.7773L138.887 20.5898L137.141 21.3047L137.176 20.9766L137.27 20.1094L137.363 19.2891L137.961 13.8516L138.031 13.2305C138.086 12.7461 138.113 12.3555 138.113 12.0586C138.113 11.5586 137.988 11.3086 137.738 11.3086C137.152 11.3086 136.52 11.9727 135.84 13.3008C135.66 13.1523 135.57 13.0234 135.57 12.9141C135.57 12.4453 135.996 11.8086 136.848 11.0039C137.707 10.1914 138.387 9.78516 138.887 9.78516C139.559 9.78516 139.895 10.2148 139.895 11.0742C139.895 11.293 139.875 11.5859 139.836 11.9531L139.742 12.9023L139.648 13.6992L139.555 14.5312L139.883 14.0156C141.633 11.1953 143.262 9.78516 144.77 9.78516C145.496 9.78516 145.859 10.3086 145.859 11.3555C145.859 11.5352 145.828 11.9141 145.766 12.4922L145.648 13.5703L145.484 15.0352C146.211 13.5273 147.07 12.2773 148.062 11.2852C149.062 10.2852 149.953 9.78516 150.734 9.78516C151.508 9.78516 151.895 10.2852 151.895 11.2852C151.895 11.7148 151.852 12.2266 151.766 12.8203L151.145 17.168C151.012 18.0664 150.945 18.7617 150.945 19.2539C150.945 19.668 151.059 19.875 151.285 19.875C151.551 19.875 151.883 19.6523 152.281 19.207C152.688 18.7617 153.012 18.2578 153.254 17.6953C153.465 17.8359 153.57 17.9648 153.57 18.082C153.57 18.5742 153.133 19.2344 152.258 20.0625C151.391 20.8906 150.699 21.3047 150.184 21.3047C149.52 21.3047 149.188 20.8594 149.188 19.9688C149.188 19.4062 149.273 18.5352 149.445 17.3555L149.855 14.5312C149.871 14.4297 149.898 14.207 149.938 13.8633C149.953 13.7227 149.98 13.4844 150.02 13.1484C150.059 12.8125 150.078 12.5547 150.078 12.375C150.078 11.7109 149.859 11.3789 149.422 11.3789C148.688 11.3789 147.832 12.1133 146.855 13.582C145.887 15.0508 145.328 16.4492 145.18 17.7773L144.863 20.5898ZM161.938 16.3477C161.055 17.8008 160.082 18.9922 159.02 19.9219C157.965 20.8438 157.047 21.3047 156.266 21.3047C155.195 21.3047 154.66 20.4414 154.66 18.7148C154.66 16.3398 155.438 14.2852 156.992 12.5508C158.555 10.8086 160.402 9.9375 162.535 9.9375C163.348 9.9375 164.039 10.0391 164.609 10.2422C164.57 10.3828 164.547 10.4688 164.539 10.5L164.398 11.1211C164.305 11.5508 164.254 11.8008 164.246 11.8711L163.496 17.0508L163.391 17.8008C163.289 18.543 163.238 19.0391 163.238 19.2891C163.238 19.625 163.336 19.793 163.531 19.793C164.188 19.793 164.859 19.0586 165.547 17.5898C165.758 17.7148 165.863 17.8398 165.863 17.9648C165.863 18.2383 165.527 18.7891 164.855 19.6172C163.941 20.7422 163.094 21.3047 162.312 21.3047C161.742 21.3047 161.457 20.9219 161.457 20.1562C161.457 19.9219 161.484 19.5977 161.539 19.1836L161.656 18.2461L161.809 17.2148L161.938 16.3477ZM162.605 11.6953C161.895 11.2969 161.176 11.0977 160.449 11.0977C159.355 11.0977 158.438 11.7656 157.695 13.1016C156.953 14.4375 156.582 16.0938 156.582 18.0703C156.582 19.0859 156.883 19.5938 157.484 19.5938C158.18 19.5938 159.02 19.0625 160.004 18C161.332 16.5703 162.137 14.8906 162.418 12.9609L162.605 11.6953ZM170.141 20.5898L168.395 21.3047L168.43 20.9766L168.523 20.1094L168.617 19.2891L169.227 13.8516L169.297 13.2305C169.344 12.7461 169.367 12.3555 169.367 12.0586C169.367 11.5586 169.242 11.3086 168.992 11.3086C168.406 11.3086 167.777 11.9727 167.105 13.3008C166.926 13.1523 166.836 13.0234 166.836 12.9141C166.836 12.4453 167.262 11.8086 168.113 11.0039C168.973 10.1914 169.648 9.78516 170.141 9.78516C170.812 9.78516 171.148 10.2148 171.148 11.0742C171.148 11.293 171.129 11.5859 171.09 11.9531L170.996 12.9023L170.902 13.6992L170.809 14.5312C171.73 13.1562 172.738 12.0234 173.832 11.1328C174.934 10.2344 175.871 9.78516 176.645 9.78516C177.402 9.78516 177.781 10.3125 177.781 11.3672C177.781 11.6875 177.738 12.168 177.652 12.8086L177.02 17.1797C176.895 18.0547 176.832 18.7461 176.832 19.2539C176.832 19.6602 176.941 19.8633 177.16 19.8633C177.699 19.8633 178.363 19.1445 179.152 17.707C179.34 17.8242 179.434 17.9453 179.434 18.0703C179.434 18.5781 178.996 19.2461 178.121 20.0742C177.254 20.8945 176.547 21.3047 176 21.3047C175.391 21.3047 175.086 20.8672 175.086 19.9922C175.086 19.3516 175.168 18.4648 175.332 17.332L175.742 14.4961C175.875 13.5742 175.941 12.8438 175.941 12.3047C175.941 11.6875 175.727 11.3789 175.297 11.3789C174.297 11.3789 173.281 12.0586 172.25 13.418C171.227 14.7695 170.629 16.2227 170.457 17.7773L170.141 20.5898ZM187.438 16.0781L188.961 14.5547H194.434L192.922 16.0781H187.438ZM204.934 11.9062L203.023 13.7344C202.844 13.125 202.754 12.5195 202.754 11.918C202.754 9.90234 203.504 8.28516 205.004 7.06641C206.504 5.84766 208.496 5.23828 210.98 5.23828H211.906C211.555 7.02734 211.344 8.23047 211.273 8.84766L210.641 14.5781L210.488 15.8789C210.355 16.9883 210.113 17.7891 209.762 18.2812C209.418 18.7734 208.754 19.2539 207.77 19.7227L211.168 19.8984L209.762 21.2578L204.055 21L205.555 19.5469L206.832 19.6875C207.785 19.0859 208.371 17.8555 208.59 15.9961L208.719 14.8594L209.621 6.65625H209.258C206.008 6.65625 204.383 7.73047 204.383 9.87891C204.383 10.5508 204.566 11.2266 204.934 11.9062ZM214.637 20.6836L216.266 18.9609C216.664 19.1094 217.219 19.2422 217.93 19.3594C218.508 19.0078 218.902 18.5625 219.113 18.0234C219.324 17.4766 219.52 16.4062 219.699 14.8125L220.672 6.08203C217.133 6.49609 215.363 7.77344 215.363 9.91406C215.363 10.5547 215.535 11.2227 215.879 11.918L213.98 13.6992C213.809 13.3164 213.723 12.75 213.723 12C213.723 9.65625 214.633 7.86719 216.453 6.63281C218.281 5.39062 220.914 4.76953 224.352 4.76953C230.023 4.76953 232.859 6.74219 232.859 10.6875C232.859 13.0469 232.062 15.2227 230.469 17.2148C228.352 19.8477 225.125 21.1641 220.789 21.1641C218.969 21.1641 216.918 21.0039 214.637 20.6836ZM222.594 5.8125L221.609 14.6133L221.492 15.7148C221.375 16.7383 221.156 17.4844 220.836 17.9531C220.516 18.4219 219.887 18.9297 218.949 19.4766C220.66 19.7109 222.258 19.8281 223.742 19.8281C225.125 19.8281 226.191 19.6367 226.941 19.2539C227.699 18.8633 228.438 18.1289 229.156 17.0508C230.164 15.5508 230.668 13.8672 230.668 12C230.668 7.875 228.105 5.8125 222.98 5.8125H222.594ZM236.223 11.9766L234.324 13.8047C234.137 13.1797 234.043 12.5859 234.043 12.0234C234.043 9.83594 234.953 8.06641 236.773 6.71484C238.102 5.73047 239.992 5.23828 242.445 5.23828H246.312C247.766 5.23828 249.25 5.1875 250.766 5.08594L249.816 7.48828L249.629 7.92188C249.434 8.38281 249.184 8.61328 248.879 8.61328C248.832 8.61328 248.777 8.60938 248.715 8.60156C248.801 8.21094 248.844 7.89844 248.844 7.66406C248.844 7.14844 248.57 6.82812 248.023 6.70312C247.484 6.57031 246.133 6.50391 243.969 6.50391H242.832L242.211 12.1758H244.496C245.816 12.1758 246.988 12.1133 248.012 11.9883C247.121 13.0586 246.223 13.5938 245.316 13.5938C244.809 13.5938 244.09 13.5547 243.16 13.4766C242.777 13.4531 242.508 13.4414 242.352 13.4414H242.07L241.953 14.4609C241.789 15.9453 241.527 17 241.168 17.625C240.816 18.25 240.121 18.8789 239.082 19.5117L241.648 19.7109L242.691 19.8047C243.426 19.8594 244.305 19.8867 245.328 19.8867C247.055 19.8867 248.492 19.3281 249.641 18.2109C249.773 18.3594 249.84 18.5 249.84 18.6328C249.84 18.8516 249.422 19.3008 248.586 19.9805C247.367 20.9727 246.035 21.4688 244.59 21.4688C243.254 21.4688 241.332 21.3555 238.824 21.1289L234.453 20.7305C234.305 20.7227 233.777 20.6914 232.871 20.6367L235.016 19.0195C235.789 19.1523 236.719 19.2695 237.805 19.3711C238.57 19.0742 239.086 18.6523 239.352 18.1055C239.617 17.5586 239.84 16.457 240.02 14.8008L240.945 6.50391H240.535C239.02 6.50391 237.832 6.81641 236.973 7.44141C236.113 8.05859 235.684 8.91406 235.684 10.0078C235.684 10.6406 235.863 11.2969 236.223 11.9766ZM253.848 11.9297L252.008 13.6992C251.688 12.8633 251.527 12.0547 251.527 11.2734C251.527 9.33594 252.367 7.77344 254.047 6.58594C255.453 5.58594 257.859 5.08594 261.266 5.08594C261.844 5.08594 262.352 5.09766 262.789 5.12109C264 5.19922 264.621 5.23828 264.652 5.23828H265.473C264.863 6.19141 264.559 8.12109 264.559 11.0273L264.57 11.6367L264.617 12.9844C264.617 14.6016 264.816 16.2578 265.215 17.9531C265.371 18.6094 265.523 19.0312 265.672 19.2188C265.82 19.4062 266.078 19.5 266.445 19.5C266.844 19.5 267.297 19.3711 267.805 19.1133C267.859 19.2461 267.887 19.3555 267.887 19.4414C267.887 19.6367 267.734 19.8047 267.43 19.9453L266.879 20.2148L263.996 21.4688C263.355 19.4922 262.969 17.4219 262.836 15.2578L261.945 15.8789H258.008C257.289 17.707 256.305 19.0117 255.055 19.793L257.48 19.9102L256.215 21.2461L251.539 21.082L253.098 19.6758L254.27 19.7461C254.801 19.3555 255.254 18.8086 255.629 18.1055C256.004 17.3945 256.562 16.0234 257.305 13.9922L257.656 13.0195C258.375 11.0586 259.059 9.63281 259.707 8.74219C260.355 7.84375 261.238 7.10547 262.355 6.52734C261.129 6.30078 259.836 6.1875 258.477 6.1875C255.016 6.1875 253.285 7.35547 253.285 9.69141C253.285 10.4883 253.473 11.2344 253.848 11.9297ZM262.812 14.6133C262.703 13.2539 262.648 12.1523 262.648 11.3086C262.648 10.8789 262.656 10.5273 262.672 10.2539L262.766 8.89453C262.828 7.96484 262.914 7.25391 263.023 6.76172C261.492 7.69922 260.234 9.61328 259.25 12.5039C258.969 13.3398 258.805 13.8203 258.758 13.9453L258.488 14.6133H262.812ZM268.344 18.9258L270.336 17.7188C270.648 19.6406 271.801 20.6016 273.793 20.6016C274.762 20.6016 275.555 20.3398 276.172 19.8164C276.789 19.2852 277.098 18.6055 277.098 17.7773C277.098 16.6445 276.414 15.5195 275.047 14.4023L273.629 13.2539C272.488 12.3164 271.727 11.5781 271.344 11.0391C270.961 10.4922 270.77 9.87891 270.77 9.19922C270.77 7.91797 271.281 6.85938 272.305 6.02344C273.328 5.1875 274.621 4.76953 276.184 4.76953C277.426 4.76953 278.602 5.06641 279.711 5.66016L279.031 7.21875L278.727 7.91016C278.555 8.31641 278.352 8.51953 278.117 8.51953C278.016 8.51953 277.91 8.48047 277.801 8.40234C277.934 7.99609 278 7.67188 278 7.42969C278 6.92969 277.723 6.51172 277.168 6.17578C276.621 5.83984 275.941 5.67188 275.129 5.67188C273.285 5.67188 272.363 6.43359 272.363 7.95703C272.363 8.50391 272.566 9.03125 272.973 9.53906C273.387 10.0391 274.242 10.8164 275.539 11.8711L276.676 12.8086C278.121 13.9805 278.844 15.2109 278.844 16.5C278.844 17.9219 278.242 19.1055 277.039 20.0508C275.844 20.9961 274.348 21.4688 272.551 21.4688C270.363 21.4688 268.961 20.6211 268.344 18.9258ZM293.059 19.7227L296.152 19.8984L294.746 21.2578L289.344 21L290.855 19.5469L292.121 19.6875C293.074 19.0859 293.66 17.8555 293.879 15.9961L294.008 14.8594L295.004 5.97656C291.449 6.64844 289.672 7.98828 289.672 9.99609C289.672 10.8008 289.84 11.5156 290.176 12.1406L288.289 13.8047C288.125 13.2031 288.043 12.5938 288.043 11.9766C288.043 9.85156 288.945 8.12109 290.75 6.78516C292.555 5.44141 294.891 4.76953 297.758 4.76953C301.602 4.76953 303.523 6.02734 303.523 8.54297C303.523 10.1367 302.809 11.5 301.379 12.6328C299.949 13.7656 298.137 14.3984 295.941 14.5312C295.754 16.3516 295.508 17.5391 295.203 18.0938C294.898 18.6484 294.184 19.1914 293.059 19.7227ZM296.902 5.83594L296.07 13.3125C296.508 13.3906 296.891 13.4297 297.219 13.4297C300.211 13.4297 301.707 12.1211 301.707 9.50391C301.707 7.05859 300.105 5.83594 296.902 5.83594ZM306.219 21.3047C304.461 21.3047 303.582 20.1406 303.582 17.8125C303.582 15.9375 304.27 14.1328 305.645 12.3984C307.02 10.6562 308.445 9.78516 309.922 9.78516C311.703 9.78516 312.594 10.9492 312.594 13.2773C312.594 15.1602 311.906 16.9688 310.531 18.7031C309.156 20.4375 307.719 21.3047 306.219 21.3047ZM307.637 19.9922C308.535 19.9922 309.285 19.4922 309.887 18.4922C310.496 17.4922 310.801 16.2461 310.801 14.7539C310.801 12.3164 310.043 11.0977 308.527 11.0977C307.637 11.0977 306.887 11.6016 306.277 12.6094C305.676 13.6094 305.375 14.8516 305.375 16.3359C305.375 18.7734 306.129 19.9922 307.637 19.9922ZM317.738 14.7188C319.473 11.4297 321.18 9.78516 322.859 9.78516C323.297 9.78516 323.734 9.88672 324.172 10.0898L322.52 11.8945C322.27 11.7539 321.949 11.6836 321.559 11.6836C320.746 11.6836 319.887 12.3438 318.98 13.6641C318.082 14.9766 317.555 16.3438 317.398 17.7656L317.082 20.625L315.348 21.2109L315.383 20.8594L315.465 20.0977L315.559 19.3359L316.168 13.7578L316.238 13.1484C316.293 12.6875 316.32 12.3125 316.32 12.0234C316.32 11.5469 316.188 11.3086 315.922 11.3086C315.297 11.3086 314.676 11.9766 314.059 13.3125C313.863 13.1641 313.77 13.0117 313.777 12.8555C313.801 12.3789 314.234 11.75 315.078 10.9688C315.93 10.1797 316.602 9.78516 317.094 9.78516C317.758 9.78516 318.09 10.2227 318.09 11.0977C318.09 11.3086 318.07 11.5938 318.031 11.9531L317.949 12.7734L317.844 13.7578L317.738 14.7188ZM327.594 11.4492L327.008 16.6289C326.906 17.5586 326.855 18.2461 326.855 18.6914C326.855 19.5742 327.156 20.0156 327.758 20.0156C328.406 20.0156 329.078 19.4844 329.773 18.4219C329.891 18.5703 329.949 18.7031 329.949 18.8203C329.949 19.2578 329.562 19.7812 328.789 20.3906C328.023 21 327.363 21.3047 326.809 21.3047C325.699 21.3047 325.145 20.5938 325.145 19.1719C325.145 18.6484 325.211 17.8008 325.344 16.6289L325.918 11.4492H323.445L324.816 10.0898H326.07L326.316 7.95703L328.039 7.38281L327.746 10.0898H332.715L331.344 11.4492H327.594ZM336.137 11.4492L335.188 20.9297C334.977 23.0781 334.648 24.7148 334.203 25.8398C333.766 26.9648 333.055 27.9766 332.07 28.875C330.625 30.1953 329.004 30.8555 327.207 30.8555C326.848 30.8555 326.387 30.7578 325.824 30.5625L327.383 29.1328C328.047 29.3516 328.648 29.4609 329.188 29.4609C331.492 29.4609 332.824 27.7148 333.184 24.2227L333.488 21.3164L334.473 11.4492H332.352L333.688 10.0898H334.613L334.684 9.41016C334.965 6.51953 335.797 4.26953 337.18 2.66016C338.562 1.04297 340.348 0.234375 342.535 0.234375C342.949 0.234375 343.414 0.273437 343.93 0.351562L342.289 1.96875C341.703 1.74219 341.129 1.62891 340.566 1.62891C339.223 1.62891 338.266 2.09375 337.695 3.02344C337.125 3.95312 336.711 5.73438 336.453 8.36719L336.277 10.0898H341.023L339.629 11.4492H336.137ZM342.523 21.3047C340.766 21.3047 339.887 20.1406 339.887 17.8125C339.887 15.9375 340.574 14.1328 341.949 12.3984C343.324 10.6562 344.75 9.78516 346.227 9.78516C348.008 9.78516 348.898 10.9492 348.898 13.2773C348.898 15.1602 348.211 16.9688 346.836 18.7031C345.461 20.4375 344.023 21.3047 342.523 21.3047ZM343.941 19.9922C344.84 19.9922 345.59 19.4922 346.191 18.4922C346.801 17.4922 347.105 16.2461 347.105 14.7539C347.105 12.3164 346.348 11.0977 344.832 11.0977C343.941 11.0977 343.191 11.6016 342.582 12.6094C341.98 13.6094 341.68 14.8516 341.68 16.3359C341.68 18.7734 342.434 19.9922 343.941 19.9922ZM354.969 17.5547C355.195 17.6641 355.309 17.8047 355.309 17.9766C355.309 18.5391 354.887 19.2344 354.043 20.0625C353.207 20.8906 352.504 21.3047 351.934 21.3047C351.285 21.3047 350.961 20.8359 350.961 19.8984C350.961 19.3281 350.996 18.7461 351.066 18.1523L351.195 17.1094L352.098 8.95312C352.379 6.46875 353.23 4.39453 354.652 2.73047C356.082 1.06641 357.727 0.234375 359.586 0.234375C360.039 0.234375 360.422 0.273437 360.734 0.351562L359.07 2.05078C358.703 1.92578 358.273 1.86328 357.781 1.86328C356.609 1.86328 355.73 2.27734 355.145 3.10547C354.566 3.92578 354.168 5.32031 353.949 7.28906L352.859 17.1094C352.773 17.8672 352.73 18.4102 352.73 18.7383C352.73 19.4414 352.852 19.793 353.094 19.793C353.383 19.793 353.723 19.5625 354.113 19.1016C354.504 18.6328 354.789 18.1172 354.969 17.5547ZM362.293 17.5898C362.504 17.7148 362.609 17.8359 362.609 17.9531C362.609 18.2344 362.27 18.7891 361.59 19.6172C360.676 20.7422 359.828 21.3047 359.047 21.3047C358.477 21.3047 358.191 20.9258 358.191 20.168C358.191 19.8477 358.309 18.8633 358.543 17.2148L359 14.0273L359.117 13.2188L359.211 12.5742C359.25 12.3008 359.27 12.0703 359.27 11.8828C359.27 11.4922 359.16 11.2969 358.941 11.2969C358.332 11.2969 357.676 11.9688 356.973 13.3125C356.824 13.1797 356.75 13.0469 356.75 12.9141C356.75 12.4375 357.188 11.7969 358.062 10.9922C358.945 10.1875 359.648 9.78516 360.172 9.78516C360.758 9.78516 361.051 10.1914 361.051 11.0039C361.051 11.1602 361.02 11.4805 360.957 11.9648L360.852 12.75C360.844 12.8125 360.801 13.1289 360.723 13.6992L360.242 17.0508L360.125 17.8008C360.023 18.543 359.973 19.0391 359.973 19.2891C359.973 19.625 360.07 19.793 360.266 19.793C360.922 19.793 361.598 19.0586 362.293 17.5898ZM359.938 8.27344L360.922 5.84766C361.797 5.48828 362.516 4.99219 363.078 4.35938C363.156 4.46875 363.195 4.58203 363.195 4.69922C363.195 5.74609 362.109 6.9375 359.938 8.27344ZM366.312 21.3047C364.555 21.3047 363.676 20.1406 363.676 17.8125C363.676 15.9375 364.363 14.1328 365.738 12.3984C367.113 10.6562 368.539 9.78516 370.016 9.78516C371.797 9.78516 372.688 10.9492 372.688 13.2773C372.688 15.1602 372 16.9688 370.625 18.7031C369.25 20.4375 367.812 21.3047 366.312 21.3047ZM367.73 19.9922C368.629 19.9922 369.379 19.4922 369.98 18.4922C370.59 17.4922 370.895 16.2461 370.895 14.7539C370.895 12.3164 370.137 11.0977 368.621 11.0977C367.73 11.0977 366.98 11.6016 366.371 12.6094C365.77 13.6094 365.469 14.8516 365.469 16.3359C365.469 18.7734 366.223 19.9922 367.73 19.9922Z" fill="#FFC800"/>
</svg>
